<svg width="128" height="128" viewBox="0 0 128 128" xmlns="http://www.w3.org/2000/svg">
  <defs>
    <linearGradient id="gradient" x1="0%" y1="0%" x2="100%" y2="100%">
      <stop offset="0%" style="stop-color:#4CAF50;stop-opacity:1" />
      <stop offset="100%" style="stop-color:#2196F3;stop-opacity:1" />
    </linearGradient>
  </defs>
  
  <!-- Background circle -->
  <circle cx="64" cy="64" r="60" fill="url(#gradient)" stroke="#1976D2" stroke-width="2"/>
  
  <!-- Android robot head -->
  <rect x="44" y="35" width="40" height="30" rx="20" fill="white"/>
  
  <!-- Android robot eyes -->
  <circle cx="52" cy="45" r="3" fill="#4CAF50"/>
  <circle cx="76" cy="45" r="3" fill="#4CAF50"/>
  
  <!-- Android robot antennae -->
  <line x1="54" y1="30" x2="50" y2="20" stroke="white" stroke-width="2" stroke-linecap="round"/>
  <line x1="74" y1="30" x2="78" y2="20" stroke="white" stroke-width="2" stroke-linecap="round"/>
  
  <!-- Android robot body -->
  <rect x="44" y="65" width="40" height="35" rx="5" fill="white"/>
  
  <!-- Android robot arms -->
  <rect x="35" y="70" width="8" height="20" rx="4" fill="white"/>
  <rect x="85" y="70" width="8" height="20" rx="4" fill="white"/>
  
  <!-- Android robot legs -->
  <rect x="50" y="100" width="8" height="15" rx="4" fill="white"/>
  <rect x="70" y="100" width="8" height="15" rx="4" fill="white"/>
  
  <!-- Bridge/connection symbol -->
  <path d="M 25 75 Q 35 65 45 75" stroke="#FFD700" stroke-width="3" fill="none" stroke-linecap="round"/>
  <path d="M 83 75 Q 93 65 103 75" stroke="#FFD700" stroke-width="3" fill="none" stroke-linecap="round"/>
  <circle cx="25" cy="75" r="3" fill="#FFD700"/>
  <circle cx="103" cy="75" r="3" fill="#FFD700"/>
</svg>